<?xml version="1.0" encoding="utf-8"?>
<!-- Generator: Adobe Illustrator 25.0.0, SVG Export Plug-In . SVG Version: 6.00 Build 0)  -->
<svg version="1.1" id="Layer_1" xmlns="http://www.w3.org/2000/svg" xmlns:xlink="http://www.w3.org/1999/xlink" x="0px" y="0px"
	 viewBox="0 0 64 64" style="enable-background:new 0 0 64 64;" xml:space="preserve">
<style type="text/css">
	.st0{fill:#363126;}
</style>
<g>
	<g>
		<path class="st0" d="M36.4,19.6l1.4,1.4L26.2,32.7l11.6,11.7l-1.4,1.4L24,33.3c-0.4-0.4-0.4-1,0-1.4L36.4,19.6z"/>
	</g>
	<g>
		<path class="st0" d="M32.1,0.1c1,0,2.1,0.1,3.1,0.2c1,0.1,2.1,0.3,3.1,0.5s2.1,0.5,3,0.8c1,0.3,2,0.7,3,1.1c1,0.4,1.9,0.9,2.8,1.3
			c0.9,0.5,1.8,1,2.7,1.6c0.9,0.6,1.7,1.2,2.5,1.9s1.6,1.4,2.3,2.1c0.7,0.7,1.4,1.5,2.1,2.3c0.7,0.8,1.3,1.7,1.9,2.5
			c0.6,0.9,1.1,1.8,1.6,2.7s0.9,1.9,1.3,2.8c0.4,1,0.8,2,1.1,3s0.6,2,0.8,3s0.4,2.1,0.5,3.1c0.1,1,0.2,2.1,0.2,3.1s-0.1,2.1-0.2,3.1
			c-0.1,1-0.3,2.1-0.5,3.1s-0.5,2.1-0.8,3c-0.3,1-0.7,2-1.1,3c-0.4,1-0.9,1.9-1.3,2.8c-0.5,0.9-1,1.8-1.6,2.7
			c-0.6,0.9-1.2,1.7-1.9,2.5c-0.7,0.8-1.4,1.6-2.1,2.3s-1.5,1.5-2.3,2.1c-0.8,0.7-1.7,1.3-2.5,1.9c-0.9,0.6-1.8,1.1-2.7,1.6
			s-1.9,0.9-2.8,1.3c-1,0.4-2,0.8-3,1.1s-2,0.6-3,0.8c-1,0.2-2.1,0.4-3.1,0.5c-2.1,0.2-4.2,0.2-6.3,0c-1-0.1-2.1-0.3-3.1-0.5
			c-1-0.2-2.1-0.5-3-0.8c-1-0.3-2-0.7-3-1.1c-1-0.4-1.9-0.9-2.8-1.3c-0.9-0.5-1.8-1-2.7-1.6c-0.9-0.6-1.7-1.2-2.5-1.9
			c-0.8-0.7-1.6-1.4-2.3-2.1S8.1,53,7.4,52.2c-0.7-0.8-1.3-1.7-1.9-2.5C4.9,48.8,4.4,48,3.9,47c-0.5-0.9-0.9-1.9-1.3-2.8
			c-0.4-1-0.8-2-1.1-3s-0.6-2-0.8-3s-0.4-2.1-0.5-3.1S0,33,0,32S0.1,30,0.2,29c0.1-1,0.3-2.1,0.5-3.1s0.5-2.1,0.8-3
			c0.3-1,0.7-2,1.1-3c0.4-1,0.9-1.9,1.3-2.8c0.5-0.9,1-1.8,1.6-2.7s1.2-1.7,1.9-2.5s1.4-1.6,2.1-2.3c0.7-0.7,1.5-1.5,2.3-2.1
			c0.8-0.7,1.6-1.3,2.5-1.9C15.2,5,16.1,4.5,17,4s1.9-0.9,2.8-1.3c1-0.4,2-0.8,3-1.1s2-0.6,3-0.8s2.1-0.4,3.1-0.5
			C30,0.1,31.1,0.1,32.1,0.1z M32.1,62c1,0,2,0,2.9-0.1c1-0.1,2-0.2,2.9-0.4c1-0.2,1.9-0.4,2.9-0.7c0.9-0.3,1.9-0.6,2.8-1
			c0.9-0.4,1.8-0.8,2.7-1.3s1.7-1,2.5-1.5c0.8-0.5,1.6-1.1,2.4-1.8c0.8-0.6,1.5-1.3,2.2-2s1.4-1.4,2-2.2c0.6-0.8,1.2-1.6,1.8-2.4
			c0.4-0.7,0.9-1.6,1.4-2.5c0.5-0.9,0.9-1.8,1.3-2.7c0.4-0.9,0.7-1.8,1-2.8c0.3-0.9,0.5-1.9,0.7-2.9s0.3-1.9,0.4-2.9
			c0.1-0.8,0.1-1.8,0.1-2.8s0-2-0.1-2.9c-0.1-1-0.2-2-0.4-2.9c-0.2-1-0.4-1.9-0.7-2.9c-0.3-0.9-0.6-1.9-1-2.8
			c-0.4-0.9-0.8-1.8-1.3-2.7s-1-1.7-1.5-2.5c-0.5-0.8-1.1-1.6-1.8-2.4c-0.6-0.8-1.3-1.5-2-2.2s-1.4-1.4-2.2-2s-1.5-1.2-2.4-1.8
			c-0.8-0.5-1.7-1.1-2.5-1.5c-0.9-0.5-1.8-0.9-2.7-1.3s-1.8-0.7-2.8-1c-0.9-0.3-1.9-0.5-2.9-0.7S35.9,2.1,34.9,2C33,1.8,31,1.8,29,2
			c-1,0.1-1.9,0.2-2.9,0.4s-1.9,0.4-2.9,0.7s-1.9,0.6-2.8,1c-0.9,0.4-1.8,0.8-2.7,1.3s-1.7,1-2.5,1.5S13.6,8,12.8,8.7
			c-0.8,0.6-1.5,1.3-2.2,2s-1.4,1.4-2,2.2s-1.2,1.6-1.8,2.4c-0.5,0.8-1.1,1.7-1.5,2.5c-0.5,0.9-0.9,1.8-1.3,2.7
			c-0.4,0.9-0.7,1.8-1,2.8c-0.3,0.9-0.5,1.9-0.7,2.9S2,28.1,1.9,29.1C2.1,30,2.1,31,2.1,32s0,2,0.1,2.9c0.1,1,0.2,2,0.4,2.9
			c0.2,1,0.4,1.9,0.7,2.9c0.3,0.9,0.6,1.9,1,2.8c0.4,0.9,0.8,1.8,1.3,2.7c0.5,0.9,1,1.7,1.5,2.5s1.1,1.6,1.8,2.4
			c0.6,0.8,1.3,1.5,2,2.2s1.4,1.4,2.2,2c0.8,0.6,1.6,1.2,2.4,1.8c0.7,0.4,1.6,0.9,2.5,1.4s1.8,0.9,2.7,1.3c0.9,0.4,1.8,0.7,2.8,1
			c0.9,0.3,1.9,0.5,2.9,0.7s1.9,0.3,2.9,0.4C30.1,62,31.1,62,32.1,62z"/>
	</g>
</g>
</svg>
