<?xml version="1.0" encoding="utf-8"?>
<!-- Generator: Adobe Illustrator 25.0.0, SVG Export Plug-In . SVG Version: 6.00 Build 0)  -->
<svg version="1.1" id="Layer_2" xmlns="http://www.w3.org/2000/svg" xmlns:xlink="http://www.w3.org/1999/xlink" x="0px" y="0px"
	 viewBox="0 0 170.6 46.7" style="enable-background:new 0 0 170.6 46.7;" xml:space="preserve">
<style type="text/css">
	.st0{fill:#8E8063;}
</style>
<path class="st0" d="M166,18.9c-3.4-7.3-10.6-12.8-18-15.8c-0.7-0.3-1.4-0.6-2.1-0.8c-5.7-1.6-11.5-1.8-17.2-1.6
	C116.6,1.4,107.1,4.2,96,9c-13.7,5.8-25.5,11.8-38,18.5c-12.5,6.4-25.3,11.8-39.3,11.8c-5.5,0.1-11.1-0.7-16-3.6L2.5,36
	c4.3,3.5,10.7,5,16.1,5.3c7.4,0.5,14.8-0.7,22.1-2.9c8-1.3,18.5-5.4,25.9-8.8c4.9-2.3,8.2-3.9,13.4-5.6c4.2-1.4,11-3.1,14.1-3.7
	c4.6-0.8,10.1-1,13.8,1.8c2.9,2.1,4.8,5.5,4.4,8.8c-0.6,4.5-6.2,9.2-11.8,8.7c-2-0.2-4.1-1.2-5.1-2.9c-0.9-1.7-0.4-4.3,1.7-5.6
	L97,30.7c-2.6,0.5-4.5,3.8-3.5,6.7c0.9,2.7,3.7,4.6,6.6,5.2c7.8,1.4,15-5,14.7-11.6c-0.2-3.9-2.9-7.6-6.1-9.9
	c-3.9-2.8-10-3.5-14.8-3.4c-5.1,0.1-13.2,1.9-18.1,3.5c11.8-6.9,23.8-13.6,36.6-16.7c10.8-2.5,26.7-3,36.4,2.2
	c8.2,4.4,15.6,11.8,15.5,21.1c-0.1,9.2-10.6,17-22.1,13.2c-6-2-9.2-6.4-9.7-10.3c-0.6-4.7,3.3-9.6,8.9-9.2c5.5,0.3,7.6,4.9,5.8,7.2
	c-0.7,1-2,1.7-3.4,1.6l-0.1,0.4c3,0.6,6.1-2.3,4.9-6c-0.8-2.5-3.2-4.7-7.1-5.3c-9.7-1.3-17,10.4-8.4,20c8.1,9,25,9.1,32.4-2.6
	C169.1,31.5,168.8,24.6,166,18.9"/>
</svg>
