<?xml version="1.0" encoding="utf-8"?>
<!-- Generator: Adobe Illustrator 25.0.0, SVG Export Plug-In . SVG Version: 6.00 Build 0)  -->
<svg version="1.1" id="Layer_1" xmlns="http://www.w3.org/2000/svg" xmlns:xlink="http://www.w3.org/1999/xlink" x="0px" y="0px"
	 viewBox="0 0 350 30" style="enable-background:new 0 0 350 30;" xml:space="preserve">
<style type="text/css">
	.st0{enable-background:new    ;}
	.st1{clip-path:url(#SVGID_2_);fill:#8E8063;}
</style>
<g class="st0">
	<g>
		<defs>
			<rect id="SVGID_1_" x="4.1" y="2.6" width="342.5" height="24"/>
		</defs>
		<clipPath id="SVGID_2_">
			<use xlink:href="#SVGID_1_"  style="overflow:visible;"/>
		</clipPath>
		<path class="st1" d="M345.8,26.4H4.9c-0.4,0-0.6-0.3-0.6-0.6c0-0.4,0.3-0.6,0.6-0.6h340.9c0.4,0,0.6,0.3,0.6,0.6
			C346.4,26.2,346.2,26.4,345.8,26.4"/>
		<path class="st1" d="M160.8,26.4c-2.1,0-4.1-0.9-5.1-2.4c-0.9-1.2-1-2.7-0.4-4.1c0.1-0.3,0.5-0.5,0.9-0.3c0.3,0.1,0.5,0.5,0.3,0.9
			c-0.6,1.2-0.2,2.2,0.2,2.8c0.9,1.3,2.8,2,4.6,1.8c1.3-0.1,3.6-0.8,4.9-3.8c1.1-2.6,0.5-5.4-1.6-7.4c-2.6-2.3-8-3.7-14.8,0.2
			c-2.7,1.5-5,3.1-7.3,4.6c-5.9,3.9-11,7.3-17.7,7.3c-5.1,0-7.4-3.8-7.7-7c-0.4-3.7,1.5-7.9,5.9-8.9c8.5-1.8,15.2,5.1,15.5,5.4
			c0.2,0.3,0.2,0.7,0,0.9c-0.3,0.2-0.7,0.2-0.9,0c-0.1-0.1-6.6-6.6-14.3-5c-3.7,0.8-5.2,4.3-4.9,7.5c0.3,2.7,2.1,5.8,6.4,5.8
			c6.3,0,11.2-3.3,17-7.1c2.3-1.5,4.7-3.1,7.4-4.7c7.4-4.2,13.4-2.6,16.3,0c2.6,2.3,3.3,5.7,1.9,8.9c-1.2,2.7-3.3,4.3-5.9,4.6
			C161.3,26.4,161,26.4,160.8,26.4"/>
		<path class="st1" d="M189.9,26.4c-0.2,0-0.5,0-0.7,0c-2.6-0.3-4.8-2-5.9-4.6c-1.4-3.1-0.6-6.5,1.9-8.9c2.9-2.6,8.9-4.2,16.3,0
			c2.7,1.5,5.1,3.1,7.4,4.7c5.7,3.8,10.7,7.1,17,7.1c4.3,0,6.1-3.1,6.4-5.8c0.3-3.1-1.3-6.7-4.9-7.5c-7.8-1.6-14.3,4.9-14.3,5
			c-0.2,0.3-0.7,0.3-0.9,0c-0.3-0.2-0.3-0.7,0-0.9c0.3-0.3,7.1-7.1,15.5-5.4c4.4,0.9,6.3,5.1,5.9,8.9c-0.3,3.2-2.5,7-7.7,7
			c-6.7,0-11.8-3.4-17.7-7.3c-2.3-1.5-4.7-3.1-7.3-4.6c-6.8-3.8-12.2-2.5-14.8-0.2c-2.2,1.9-2.8,4.8-1.6,7.4c1.3,3,3.6,3.7,4.9,3.8
			c1.9,0.2,3.7-0.5,4.6-1.8c0.4-0.6,0.8-1.5,0.2-2.8c-0.1-0.3,0-0.7,0.3-0.9c0.3-0.1,0.7,0,0.9,0.3c0.6,1.4,0.5,2.9-0.4,4.1
			C194,25.5,192,26.4,189.9,26.4"/>
		<path class="st1" d="M175.3,11.2c-3.9,0-7,3.1-7,7s3.1,7,7,7s7-3.1,7-7S179.2,11.2,175.3,11.2 M175.3,26.4c-4.6,0-8.3-3.7-8.3-8.3
			c0-4.6,3.7-8.3,8.3-8.3s8.3,3.7,8.3,8.3C183.6,22.7,179.9,26.4,175.3,26.4"/>
		<path class="st1" d="M188.7,12.3c-0.2,0-0.5-0.1-0.6-0.4c-2.4-4.9-7.3-8-12.8-8c-5.5,0-10.4,3-12.8,8c-0.2,0.3-0.5,0.4-0.9,0.3
			c-0.3-0.2-0.5-0.5-0.3-0.9c2.6-5.4,8-8.7,13.9-8.7c6,0,11.3,3.3,13.9,8.7c0.2,0.3,0,0.7-0.3,0.9C188.9,12.2,188.8,12.3,188.7,12.3
			"/>
	</g>
</g>
</svg>
