<svg xmlns="http://www.w3.org/2000/svg" width="45.077" height="65.765" viewBox="0 0 45.077 65.765">
  <g id="Capa_1" data-name="Capa 1" transform="translate(-0.003 0.001)">
    <path id="Trazado_15003" data-name="Trazado 15003" d="M9.028,49.075A7.783,7.783,0,0,1,5.141,38.492C1.663,37-.269,34.414.034,30.574A7.066,7.066,0,0,1,5.2,24.054a7.379,7.379,0,0,1,8.4,2.505c1.258-.527,2.431-1.122,3.67-1.5a6.958,6.958,0,0,1,3.972.208V20.936c-.419.181-.685.29-.949.409C15.455,23.524,8.575,20.989,6.336,16.2c-.942-2.012-.754-2.693,1.282-3.589,3.9-1.711,7.57-1.033,11.013,1.273a24.9,24.9,0,0,1,2.09,1.768c-.246-1.277-.439-2.442-.7-3.594a18.987,18.987,0,0,0-2.211-5.9,6.929,6.929,0,0,0-2.693-2.65,1.1,1.1,0,0,1-.566-1.563,1.123,1.123,0,0,1,1.63-.383A8.127,8.127,0,0,1,19.561,4.8c.679,1.154,1.232,2.382,1.846,3.589.117-.22.266-.491.411-.765,3.013-5.751,10.5-8.988,16.392-7.064a17.893,17.893,0,0,1,1.964.875,1.31,1.31,0,0,1,.735,1.562,10.636,10.636,0,0,1-1.658,4.242c-3.261,4.994-10.168,7.655-15.6,6.006-.354-.108-.7-.229-.962-.316q.477,5.958.955,11.934a1.965,1.965,0,0,0,.255-.181,7.491,7.491,0,0,1,9.766-.5c.4.3.674.13,1.011-.006a7.572,7.572,0,0,1,10.4,7.259A7.4,7.4,0,0,1,41.123,37.9c-.2.115-.4.218-.637.344a7.708,7.708,0,0,1-.83,8.67c2.083,2.716,2.583,5.679.879,8.739s-4.493,4.2-7.977,3.829a7.679,7.679,0,0,1-3.518,5.146,7.515,7.515,0,0,1-4.448,1.128c-3.473-.181-5.85-2.351-7.123-6.557a7.662,7.662,0,0,1-8.443-10.12ZM25.044,63.534a5.373,5.373,0,1,0,.015-10.745,5.372,5.372,0,1,0-.015,10.743ZM11.907,36.627a5.372,5.372,0,0,0,.041,10.743,5.372,5.372,0,1,0-.043-10.743Zm12.554,12.9.346-.028a5.364,5.364,0,1,0-4.955-8.2,1.989,1.989,0,0,0-.277.624c-.19.925-.356,1.856-.527,2.784a.985.985,0,0,0-.022.337,5.49,5.49,0,0,0,5.431,4.488ZM18.656,27.1a5.345,5.345,0,0,0-5.016,6.95,1.216,1.216,0,0,0,.644.692,8.188,8.188,0,0,1,3.788,2.725,1.091,1.091,0,0,0,.752.363A5.368,5.368,0,0,0,18.658,27.1Zm9.2,10.189A7.189,7.189,0,0,1,31.6,34.747a3.032,3.032,0,0,0,1.63-1.1,5.329,5.329,0,0,0,1.141-4.434,5.39,5.39,0,0,0-4.326-4.277,5.238,5.238,0,0,0-5.509,2.544,7.7,7.7,0,0,1,.713,9.033c.877.262,1.712.51,2.61.778ZM11.341,34.14a7.656,7.656,0,0,1,.746-5.331.89.89,0,0,0-.168-.718,5.362,5.362,0,1,0-7.1,7.734A2.183,2.183,0,0,0,7.669,35.8a16.972,16.972,0,0,1,3.672-1.662ZM23.585,8.818l.156.16q.606-.3,1.212-.61c1.424-.724,2.842-1.463,4.275-2.17a1.1,1.1,0,0,1,1.549.452,1.11,1.11,0,0,1-.538,1.526c-.22.128-.454.229-.681.346l-5.007,2.557c.158.089.229.158.307.168.644.08,1.286.186,1.932.218,4.523.221,9.524-2.708,11.266-6.686.817-1.865.91-1.828-1.119-2.247-4.586-.947-8.446.581-11.624,3.912a21.837,21.837,0,0,0-1.733,2.373ZM31.56,46.784a5.249,5.249,0,0,0,6.794-1.878,5.375,5.375,0,0,0-1.578-7.41,5.28,5.28,0,0,0-7.091,1.171,7.662,7.662,0,0,1,1.876,8.117Zm6.354,1.692c-3.134,1.4-4.108,1.456-7.17.469a.548.548,0,0,0-.434.019c-.819.7-1.617,1.418-2.42,2.129a7.738,7.738,0,0,1,4.655,5.692.738.738,0,0,0,.471.454,5.309,5.309,0,0,0,4.9-8.765ZM17.469,47.307c-2.734,2.008-2.753,2.008-5.9,2.3a.731.731,0,0,0-.478.445,5.146,5.146,0,0,0,1.035,5.135,5.227,5.227,0,0,0,4.942,1.774c.367-.048.5-.253.622-.612a13.027,13.027,0,0,1,1.018-2.341A7.375,7.375,0,0,1,21.736,51.3a7.829,7.829,0,0,1-4.268-3.989Zm18.013-12.93c1.02.549,2.068,1.039,3.026,1.664a1.008,1.008,0,0,0,1.12.1A5.359,5.359,0,0,0,38.5,25.96a4.627,4.627,0,0,0-2.905.287,7.621,7.621,0,0,1-.112,8.128ZM19.335,17.75c-2.153-3.492-8.035-4.964-11.11-2.878,1.349,3.462,6.28,5.91,9.779,4.774-.825-.313-1.6-.551-2.317-.9a1.628,1.628,0,0,1-.8-.856c-.253-.875.592-1.541,1.509-1.227.955.328,1.893.7,2.935,1.093Z" transform="translate(0 0)" fill="#8E8063"/>
  </g>
</svg>
