<svg xmlns="http://www.w3.org/2000/svg" width="69.731" height="51.478" viewBox="0 0 69.731 51.478">
  <g id="Capa_1" data-name="Capa 1" transform="translate(0.5 0.499)">
    <path id="Trazado_15001" data-name="Trazado 15001" d="M0,29.622c.3-1.324.515-2.67.906-3.965a31.994,31.994,0,0,1,4.986-9.365Q11.253,8.827,16.662,1.4a3.066,3.066,0,0,1,5.154.013c.567.777,1.114,1.567,1.661,2.358.45.647.414,1.237-.084,1.6-.516.375-1.062.233-1.532-.421-.574-.8-1.123-1.618-1.709-2.407a1.052,1.052,0,0,0-1.838,0c-4.08,5.658-8.19,11.293-12.2,17a20.891,20.891,0,0,0-3.825,8.78A16.524,16.524,0,0,0,9.006,44.954a16.574,16.574,0,0,0,14.876,2.78c.276-.072.545-.176.855-.276-.717-.655-1.428-1.234-2.059-1.89a15.4,15.4,0,0,1-2.491-18.345,62.339,62.339,0,0,1,4.041-6.315c1.329-1.935,2.758-3.8,4.179-5.669a.847.847,0,0,0,.009-1.25C27.181,12.4,26,10.772,24.824,9.138a1.251,1.251,0,0,1-.294-.9c.108-.328.447-.759.739-.805a1.352,1.352,0,0,1,1.065.45c1.094,1.386,2.116,2.828,3.165,4.25.16.215.326.425.567.739.572-.814,1.112-1.589,1.661-2.36A2.633,2.633,0,0,1,34.465,9.35a2.74,2.74,0,0,1,1.822,1.257q2.634,3.726,5.283,7.435c.194.273.4.534.619.821.624-.341,1.214-.69,1.829-.994A17.126,17.126,0,0,1,68.477,30.4a16.816,16.816,0,0,1-3.8,13.9,3.091,3.091,0,0,1-.407.443.932.932,0,0,1-1.334-.009.916.916,0,0,1-.151-1.273c.169-.262.4-.482.588-.732,3.522-4.62,4.4-9.706,2.242-15.1a14.474,14.474,0,0,0-11.9-9.376,15.13,15.13,0,1,0-.237,29.994A14.887,14.887,0,0,0,59.1,46.385c.285-.161.644-.393.911-.334a1.454,1.454,0,0,1,.9.649.849.849,0,0,1-.447,1.189A31.913,31.913,0,0,1,56.1,49.737a16.482,16.482,0,0,1-13.063-1.671.784.784,0,0,0-.911.007,15.536,15.536,0,0,1-14.654.907,1.444,1.444,0,0,0-1-.005A19.284,19.284,0,0,1,.163,33.7c-.045-.33-.108-.656-.163-.985ZM40.773,46.554A17.226,17.226,0,0,1,40.549,20.1c-1.939-2.74-3.847-5.438-5.755-8.137-.638-.9-1-.9-1.646,0-2.514,3.477-5.05,6.94-7.539,10.434-1.1,1.546-2.188,3.11-3.146,4.745a13.97,13.97,0,0,0-1.982,10.025A13.686,13.686,0,0,0,33.449,48.362a13.216,13.216,0,0,0,7.326-1.806Z" transform="translate(0 0)" fill="#f2f0de" stroke="#f2f0de" stroke-width="1"/>
  </g>
</svg>
