<svg xmlns="http://www.w3.org/2000/svg" width="47.636" height="59.484" viewBox="0 0 47.636 59.484">
  <g id="Capa_1" data-name="Capa 1" transform="translate(0.014 0.005)">
    <path id="Trazado_15004" data-name="Trazado 15004" d="M47.5,7.992a7.015,7.015,0,0,0-4.462-5.413c-.776-.307-1.172-.6-1.058-1.5A.976.976,0,0,0,40.994,0,1.078,1.078,0,0,0,39.9,1.075c-.021.3,0,.6,0,.925H34.365c-.082-.83.172-1.955-1.072-1.973C31.981.008,32.314,1.2,32.181,2.035c-1.205,0-2.362-.047-3.514.016a9.759,9.759,0,0,0-2.505.389,7.141,7.141,0,0,0-4.935,7.121q-.013,8.138,0,16.278c0,.016,0,.03,0,.047v5.539a.859.859,0,0,1-.088.392v3.115H5.514c-1.246,0-2.491,0-3.739,0-1.3.005-1.789.492-1.789,1.782q0,9.87,0,19.742v.7H2.113V37.1H16.288v3.959c-.729,0-1.463,0-2.2,0a7.693,7.693,0,0,0-3.681.778,7.26,7.26,0,0,0-4.238,6.454c-.1,2.794-.047,5.594-.028,8.392a.99.99,0,0,1-.086.484H8.273a2.9,2.9,0,0,1-.032-.345c0-2.689-.023-5.377,0-8.066a5.384,5.384,0,0,1,5.343-5.567c2.421-.095,4.847-.025,7.272-.023a1.5,1.5,0,0,1,.282.063v3.963h-.69q-3.211,0-6.424,0a1.543,1.543,0,0,0-1.776,1.759c-.009,2.491,0,4.984,0,7.475v.739H14.42a.179.179,0,0,1-.044-.1c-.018-2.567-.014-5.133-.014-7.743h1.922v7.84h2.158q0-3.519,0-7.037v-.781h2.784V50.1q0,3.968,0,7.934c0,1.114.324,1.433,1.456,1.433q11.736,0,23.473.009a1.465,1.465,0,0,0,1.466-.762V8.349a2.7,2.7,0,0,1-.124-.357ZM21.17,41.008H18.484V37.078H21.17ZM34.372,4.19h5.492V7.58H34.372Zm5.487,5.583v3.369H34.381V9.773Zm-5.5,5.56h5.5v3.336h-5.5Zm5.5,11.033V29.72H34.381V26.367ZM34.393,24.2V20.851h5.452V24.2ZM45.518,56.415v.9H23.33v-.769q.011-11.016.018-22.033,0-12.493-.016-24.984A5.109,5.109,0,0,1,26.615,4.5a3.94,3.94,0,0,1,1.263-.317c1.417-.039,2.836-.016,4.352-.016v.78q0,6.948,0,13.894c-.005,4-.032,7.992-.039,11.99,0,1.55.025,3.1.04,4.653.009.9.375,1.358,1.06,1.347s1.037-.473,1.042-1.382c.005-1.156,0-2.312,0-3.544H39.9c0,1.258-.007,2.477,0,3.7.007.727.347,1.158.927,1.223.687.077,1.161-.378,1.169-1.16.016-1.64.018-3.278.018-4.918Q42.007,17.828,42,4.91c0-.13.011-.261.021-.48A5.85,5.85,0,0,1,42.7,4.7a5.076,5.076,0,0,1,2.812,4.628c.033,2.558.009,5.115.009,7.673V56.417Z" fill="#f2f0de"/>
  </g>
</svg>
