<svg xmlns="http://www.w3.org/2000/svg" width="32.869" height="65.765" viewBox="0 0 32.869 65.765">
  <g id="Capa_1" data-name="Capa 1" transform="translate(0.005)">
    <path id="Trazado_15000" data-name="Trazado 15000" d="M31.471,34.05a28.848,28.848,0,0,0-3.834.278c-3.992.669-7.423,2.305-9.61,5.928a1.237,1.237,0,0,1-.18.168v-5.46c1.5-.227,2.973-.36,4.4-.681a12.33,12.33,0,0,0,7.818-4.873,17.121,17.121,0,0,0,2.794-9.975c.01-1.16-.529-1.751-1.682-1.679a31.81,31.81,0,0,0-4.644.518,12.3,12.3,0,0,0-8.486,5.684.731.731,0,0,0-.034.266l-.211-.156a5.539,5.539,0,0,0-.005-.755,2.3,2.3,0,0,1,.685-1.879,26.668,26.668,0,0,0,2.564-3.6,11.787,11.787,0,0,0,1.469-9.073,17.387,17.387,0,0,0-4.45-7.689A14.882,14.882,0,0,0,16.809,0h-.771a7.044,7.044,0,0,0-.765.572,19.383,19.383,0,0,0-3.565,4.682,12.021,12.021,0,0,0-.93,10.446,16.59,16.59,0,0,0,3.67,5.825c.814.827.523,1.675.573,2.465a28.775,28.775,0,0,0-2.779-2.962c-3.161-2.568-6.931-3.3-10.894-3.264A1.315,1.315,0,0,0,0,19.242a27.092,27.092,0,0,0,.263,3.58c1.04,6.306,4.258,10.123,10.586,11.52,1.347.3,2.738.408,4.157.611v5.563c-.161-.239-.244-.352-.316-.469a10.826,10.826,0,0,0-3.379-3.465,17.437,17.437,0,0,0-10.051-2.53A1.291,1.291,0,0,0,0,35.482a27.661,27.661,0,0,0,.256,3.58c1.023,6.318,4.265,10.2,10.682,11.573,1.328.285,2.695.4,4.107.6v5.149c0,2.612-.009,5.225.005,7.837a1.4,1.4,0,0,0,1.371,1.543A1.416,1.416,0,0,0,17.8,64.23c.007-.172,0-.343,0-.513V51.243c1.5-.22,2.914-.343,4.287-.642a12.478,12.478,0,0,0,7.8-4.679,16.925,16.925,0,0,0,2.954-10.561,1.279,1.279,0,0,0-1.378-1.31ZM30.078,20.582a13,13,0,0,1-2.59,7.686c-2.267,2.763-5.458,3.481-8.858,3.81C18.851,24.617,23.031,20.876,30.078,20.582ZM6.222,29.176c-2.511-2.284-3.173-5.348-3.479-8.619,7.171.383,11.149,4.008,11.5,11.508C11.286,31.848,8.481,31.23,6.222,29.176Zm-3.383,7.7c7.334.221,11.1,4.382,11.4,11.412C7.148,48.007,3.04,44.125,2.84,36.872Zm13.58-17.3C11.5,14.261,11.529,8.7,16.424,3.419,21.333,8.731,21.33,14.266,16.419,19.57Zm2.2,28.709C18.9,41.089,22.823,37.124,30,36.872,30.694,42.886,24.994,48.624,18.616,48.279Z" fill="#363126"/>
  </g>
</svg>
