<svg xmlns="http://www.w3.org/2000/svg" width="62.9" height="59.521" viewBox="0 0 62.9 59.521">
  <g id="Capa_1" data-name="Capa 1" transform="translate(0.015 0.005)">
    <g id="Grupo_411" data-name="Grupo 411" transform="translate(-0.015 -0.005)">
      <path id="Trazado_15005" data-name="Trazado 15005" d="M245.88,172.378a31.816,31.816,0,0,1-.9,3.415,12.737,12.737,0,0,1-4.452,6.176,13.667,13.667,0,0,1-6.515,2.32c-6.041.66-11.837-.549-17.545-2.383a1.393,1.393,0,0,1-.218-.129c.452-.286.881-.537,1.291-.82a30.01,30.01,0,0,0,8.912-9.831c1.134-1.961,2.075-4.038,3.255-5.969a8.759,8.759,0,0,1,4.9-4.052,6.988,6.988,0,0,1,5.552.755c.3.162.586.346,1.071.635-.08-1.085-.083-2-.225-2.891A15.319,15.319,0,0,0,238,152.9c-.752-1.017-1.612-1.955-2.414-2.937a1.259,1.259,0,0,1,.6-2.164,1.513,1.513,0,0,1,1.211.323c2.969,3.15,5.415,6.613,6.207,11a12.556,12.556,0,0,1-.029,4.757,1.246,1.246,0,0,0,.24,1.129,9.672,9.672,0,0,1,1.937,4.578,4.1,4.1,0,0,0,.126.461v2.334Zm-3.483-4.735a1.543,1.543,0,0,0-.168.211,20.4,20.4,0,0,1-5.736,6.709,22.361,22.361,0,0,1-2.229,1.515,1.266,1.266,0,0,1-1.734-.4,1.3,1.3,0,0,1,.325-1.752c.257-.2.543-.365.812-.551a18.859,18.859,0,0,0,6.287-6.839c.658-1.277.665-1.291-.534-2.069a4.6,4.6,0,0,0-6.85,1.235,49.065,49.065,0,0,0-2.694,4.657,36.356,36.356,0,0,1-7.292,9.87,2.8,2.8,0,0,1-.611.332,2.417,2.417,0,0,0,.32.248,33.769,33.769,0,0,0,11.442.883,10.337,10.337,0,0,0,5.455-2.012,11.125,11.125,0,0,0,3.986-7.367,7.544,7.544,0,0,0-.777-4.669Z" transform="translate(-182.981 -125.047)" fill="#8E8063"/>
      <path id="Trazado_15006" data-name="Trazado 15006" d="M12.355,152.63a30.757,30.757,0,0,0,5.56,16.483,20.354,20.354,0,0,1,2.974,5.606c1.1,3.837-.169,6.93-3.667,8.847-.157.086-.309.182-.518.3a11.555,11.555,0,0,0,4.876,1.943,21.522,21.522,0,0,0,8.158-.414c.22-.046.44-.094.663-.12a1.287,1.287,0,0,1,1.48,1.06,1.223,1.223,0,0,1-.926,1.451,36.051,36.051,0,0,1-3.672.691,19.816,19.816,0,0,1-7.787-.434,14.265,14.265,0,0,1-5.43-2.869,1.038,1.038,0,0,0-.68-.282,10.714,10.714,0,0,1-9.539-3.6,13.98,13.98,0,0,1-3.6-6.529,11.987,11.987,0,0,1,.643-6.924A32.536,32.536,0,0,1,7.765,157.13c1.346-1.481,2.827-2.84,4.249-4.252a2.829,2.829,0,0,1,.34-.245ZM11.5,182.343a.557.557,0,0,0-.028-.149c-.069-.125-.143-.248-.217-.369a21.637,21.637,0,0,1-2.984-10.559,1.3,1.3,0,0,1,1.608-1.424c.66.137,1,.641,1.032,1.6a20.271,20.271,0,0,0,1.508,6.91,12.309,12.309,0,0,0,2.2,3.61,23.121,23.121,0,0,0,2.24-1.272c1.809-1.3,2.246-3.177,1.418-5.593a21.2,21.2,0,0,0-2.709-4.786,35.3,35.3,0,0,1-4.264-8.727c-.349-1.08-.64-2.178-.986-3.366-.472.525-.914.992-1.329,1.483a29.63,29.63,0,0,0-5.639,9.058,9.378,9.378,0,0,0-.551,5.356,11.555,11.555,0,0,0,4.169,6.475,7.585,7.585,0,0,0,4.537,1.752Z" transform="translate(0.015 -129.15)" fill="#8E8063"/>
      <path id="Trazado_15007" data-name="Trazado 15007" d="M114.713,21.937c-1.8-.685-3.589-1.488-5.455-2.057A30.894,30.894,0,0,0,98.1,18.665a20.786,20.786,0,0,1-7.073-.275A6.99,6.99,0,0,1,85.5,11.11c0-.258,0-.517,0-.84A11.142,11.142,0,0,0,81.6,13.258a21.079,21.079,0,0,0-3.929,7.5,6.851,6.851,0,0,1-.246.692,1.3,1.3,0,0,1-2.438-.886c.231-.783.494-1.558.791-2.32a20.794,20.794,0,0,1,5.086-8A13.609,13.609,0,0,1,85.6,7.368a1.211,1.211,0,0,0,.675-.52A10.779,10.779,0,0,1,94.727.316a13.151,13.151,0,0,1,7.833.6,12.8,12.8,0,0,1,4.749,3.7,31.019,31.019,0,0,1,5.51,10.393c.728,2.207,1.26,4.48,1.875,6.724a.5.5,0,0,1,.018.206Zm-25.33-15.4c.206.014.3.028.4.025A21.056,21.056,0,0,1,98.562,8.28a19.8,19.8,0,0,1,2.2,1.078,1.281,1.281,0,0,1,.537,1.7,1.3,1.3,0,0,1-1.728.592c-.263-.109-.511-.257-.769-.378a18.7,18.7,0,0,0-9.484-2.031c-1.052.077-1.052.066-1.14,1.091-.017.2-.058.408-.057.611.014,2.034.481,3.65,2.674,4.592a10.133,10.133,0,0,0,4.633.668c1.063-.057,2.123-.154,3.186-.192a35.721,35.721,0,0,1,11.757,1.455c.162.049.334.065.551.106a35.59,35.59,0,0,0-4.62-9.99,12.123,12.123,0,0,0-4.037-3.88,10.569,10.569,0,0,0-8.4-.471A7.96,7.96,0,0,0,89.385,6.54Z" transform="translate(-63.392 0.005)" fill="#8E8063"/>
    </g>
  </g>
</svg>
