<svg xmlns="http://www.w3.org/2000/svg" width="51.218" height="51.001" viewBox="0 0 51.218 51.001">
  <g id="Capa_1" data-name="Capa 1" transform="translate(0.995 0.5)">
    <path id="Trazado_15002" data-name="Trazado 15002" d="M0,19.035a1.228,1.228,0,0,1,1.1-.446c1.552.006,3.1-.016,4.723-.028,0-.6.007-1.158-.016-1.716a5.967,5.967,0,0,1,2.744-5.552.573.573,0,0,0,.209-.39c.187-2.923.36-5.846.536-8.769.023-.387.045-.776.079-1.162A.724.724,0,0,1,10.2.214q1.359-.023,2.72-.019a.747.747,0,0,1,.837.8q.273,3.533.536,7.068c.071.936.132,1.873.223,2.807a.631.631,0,0,0,.251.41,5.944,5.944,0,0,1,2.776,5.2c0,.645.01,1.291.015,1.966l1.457-.011c0-.543-.037-1.072,0-1.6a12.488,12.488,0,0,1,.235-2.3,5.629,5.629,0,0,1,2.374-3.267.809.809,0,0,0,.321-.528c.153-2.26.276-4.523.412-6.785.059-1,.115-2,.193-3,.05-.63.294-.832.948-.839Q24.7.1,25.918.1c.738,0,.969.19,1.026.916.161,2.065.31,4.13.462,6.195.084,1.13.174,2.259.245,3.39a.831.831,0,0,0,.424.692,5.707,5.707,0,0,1,2.615,4.684c.031.775.016,1.551.021,2.366l1.463-.011c0-.663-.009-1.308-.015-1.953a5.95,5.95,0,0,1,2.7-5.246.681.681,0,0,0,.251-.457q.318-4.869.606-9.74c.04-.664.274-.906.925-.914C37.482.008,38.324,0,39.166,0c.653,0,.889.2.937.839q.372,4.84.731,9.681a.718.718,0,0,0,.349.625,5.793,5.793,0,0,1,2.7,4.935c.018.711.013,1.422.018,2.2l.544,0c1.441-.011,2.882-.024,4.323-.03.832,0,1.115.386.857,1.18-.833,2.567-1.682,5.128-2.5,7.7a4.869,4.869,0,0,0-.227,1.471q.051,10.029.144,20.059a1.064,1.064,0,0,1-.486,1.027L3.626,50a1.057,1.057,0,0,1-.5-1.018q-.058-10.169-.148-20.338a3.114,3.114,0,0,0-.165-.942Q1.521,23.867.2,20.043a4.417,4.417,0,0,0-.2-.424c0-.195,0-.388,0-.583Zm24.212,9.633-19.74.144c.048,6.588.1,13.137.144,19.684l19.74-.144,0-.62L24.3,40.446c0-.146-.008-.292,0-.437.031-.482.287-.755.706-.765a.7.7,0,0,1,.741.729c.014.145.009.291.01.437q.028,3.691.055,7.383c0,.186.018.372.028.561l19.7-.144q-.072-9.882-.144-19.7l-19.729.144,0,.614q.026,3.643.053,7.286c0,.162.009.325-.006.486a.721.721,0,1,1-1.441-.013c-.015-.161-.01-.323-.011-.486q-.028-3.643-.054-7.286c0-.19,0-.379,0-.591ZM1.946,20.619a.108.108,0,0,0,.007.016A60.519,60.519,0,0,1,4.044,26.8c.121.423.3.525.683.522q9.323-.085,18.644-.146c.165,0,.33-.021.537-.036-.778-2.28-1.541-4.477-2.271-6.684a.673.673,0,0,0-.774-.56c-6.166.063-12.332.1-18.5.148H2.335a.42.42,0,0,0-.388.574Zm46.042-.871c-.165-.015-.275-.033-.386-.032q-9.442.067-18.886.129a.483.483,0,0,0-.538.407c-.687,2.155-1.392,4.3-2.089,6.456-.042.129-.067.265-.107.421.151.012.246.026.342.025q9.467-.067,18.934-.13c.3,0,.414-.119.5-.39.487-1.54.993-3.074,1.493-4.611C47.493,21.274,47.736,20.527,47.988,19.748ZM23.806,4.509c-.012.125-.025.234-.032.343-.135,2.132-.283,4.261-.394,6.394a1.144,1.144,0,0,1-.655,1.078,3.857,3.857,0,0,0-2.1,2.713,28.094,28.094,0,0,0-.22,3.42c.526,0,.929.012,1.328-.015a.886.886,0,0,1,1,.711c.453,1.381.931,2.755,1.4,4.131.242.711.49,1.42.775,2.247.1-.259.158-.4.205-.544q.94-2.879,1.879-5.759c.246-.754.337-.82,1.147-.826l1.126-.009c0-.695-.021-1.309-.012-1.921a4.474,4.474,0,0,0-2.483-4.285,1.082,1.082,0,0,1-.476-.71c-.122-.93-.163-1.869-.234-2.8-.106-1.384-.212-2.768-.319-4.176l-1.931.014ZM16.1,18.457c-.006-.757,0-1.452-.018-2.146a4.37,4.37,0,0,0-2.423-3.969,1.021,1.021,0,0,1-.589-.92c-.109-1.613-.229-3.226-.349-4.838-.05-.668-.113-1.335-.167-1.976l-1.944.015c-.138,2.284-.282,4.526-.4,6.769a1.126,1.126,0,0,1-.658,1.029,3.992,3.992,0,0,0-2.16,2.945,27.8,27.8,0,0,0-.146,3.157l8.861-.064ZM36.995,4.4c-.021.153-.052.294-.059.435-.126,2.1-.258,4.2-.365,6.295a1.152,1.152,0,0,1-.651,1.084A4.028,4.028,0,0,0,33.734,15.2a27.062,27.062,0,0,0-.142,3.119l8.858-.064c-.006-.781.011-1.524-.021-2.267a4.28,4.28,0,0,0-2.314-3.783,1.18,1.18,0,0,1-.692-1.06c-.106-1.662-.24-3.322-.366-4.983-.045-.591-.1-1.181-.145-1.775L36.995,4.4ZM10.784,1.683c-.025.5-.049.942-.073,1.407l1.733-.013c-.037-.49-.072-.946-.107-1.406l-1.553.012Zm13.19-.091c-.032.481-.063.937-.093,1.4l1.755-.013c-.044-.484-.085-.931-.128-1.4l-1.533.012Zm14.727-.1-1.562.012c-.024.477-.047.922-.07,1.394L38.8,2.887C38.764,2.412,38.734,1.967,38.7,1.494Z" transform="translate(0 0)" fill="#f2f0de" stroke="#8E8063" stroke-width="1"/>
  </g>
</svg>
