<?xml version="1.0" encoding="utf-8"?>
<!-- Generator: Adobe Illustrator 25.0.0, SVG Export Plug-In . SVG Version: 6.00 Build 0)  -->
<svg version="1.1" id="Capa_1" xmlns="http://www.w3.org/2000/svg" xmlns:xlink="http://www.w3.org/1999/xlink" x="0px" y="0px"
	 viewBox="0 0 169 60.5" style="enable-background:new 0 0 169 60.5;" xml:space="preserve">
<style type="text/css">
	.st0{fill:#FFFFFF;}
</style>
<g>
	<path class="st0" d="M57.5,38.4c-0.7-1.6-0.2-2.9,0.7-4c0.8-1.1,2-1.4,3.3-1.3c0.3,0,0.7,0.2,0.9-0.1c0.2-0.4-0.2-0.6-0.4-0.9
		c-0.3-0.3-0.7-0.7-1-1c-0.3-0.3-0.5-0.6-0.3-1c0.7-1,0.2-2.1,0-3.2c-1,0.7-1.6,0.1-2.3-0.5c-0.5-0.5-1-0.7-1.6-0.1
		c-0.3,0.4-0.7,0.3-1.1,0c-0.2-0.2-0.7-0.3-0.7-0.1c-0.3,1.1-1.4,1.9-1.3,3.1c0,0.3,0.1,0.6,0,0.8C53,32,53.6,33,55.5,33.2
		c0.2,0,0.4,0.1,0.6,0.1c0.7,0.1,1.1,0.6,1,1.3c-0.1,0.8-0.6,1.1-1.4,1c-1.8-0.2-3.8,0-5.4-1.2c-0.2-0.1-0.5-0.1-0.7-0.2
		c-0.4-0.1-0.8-0.2-1,0.1c-0.3,0.4,0.2,0.6,0.4,0.8c0.5,0.4,0.3,0.8-0.1,1.2c-0.4,0.4-1,0.5-1.6,0.5c-0.7,0-1.4-0.1-1.3,1
		c0,0.2-0.3,0.5-0.5,0.6c-0.9,0.9-0.9,0.8,0.2,1.6c0.5,0.3,1.8,0.3,1.3,1.3c-0.2,0.5-1.2-0.3-1.7-0.5c-0.4-0.2-0.8-0.4-1.1-0.7
		c-0.6-0.6-0.7-1.3,0.1-1.8c0.5-0.3,0.9-0.6,0.7-1.3c-0.2-0.7,0.3-0.9,0.9-0.9c0.7,0,1.5,0.2,2.2-0.2c0-0.1,0-0.2,0-0.2
		c-0.2-0.5-1.1-0.9-0.6-1.6c0.5-0.6,1.2-0.6,2-0.6c0.6,0,1.3,0.2,1.8,0.5c1.5,1.1,3.1,0.6,4.7,0.8c-0.2-0.7-0.7-0.5-1-0.6
		c-1-0.1-1.8-0.5-2.2-1.5c-0.1-0.1-0.1-0.3-0.2-0.4c-1-0.7-1.4-1.3-0.1-2.1c0.4-0.3,0.2-0.8,0.1-1.2c-0.2-0.6-0.3-1.1,0.5-1.4
		c0.7-0.2,0.7-1,0.9-1.6c0.3-0.8,0.6-1.2,1.5-0.6c0.2,0.1,0.5,0.4,0.8,0.2c1-0.8,1.8-0.3,2.6,0.4c0.9,0.7,4,0.2,4.7-0.7
		c0.9-1,2-0.6,3-0.6c0.5,0,1,0.2,1.4-0.3c0.4-0.4,0.8-0.4,1.3-0.1c1.8,1.2,4,1.5,5.7,2.9c0.5,0.4,0.7-0.1,0.7-0.5
		c0-1.5,0.2-3.1-0.6-4.6c-0.4-0.8-0.1-1.4,0.6-1.8c0.6-0.4,1.1-0.2,1.5,0.3c0.5,0.5,0.4,1,0.2,1.6c-0.5,1.2-0.5,2.6-0.5,3.9
		c0,0.7,0.2,1.1,0.9,0.5c1.7-1.4,4.1-1.5,5.9-2.8c0.1-0.1,0.5-0.1,0.5,0c1,1.5,2.3,0.6,3.4,0.2c1-0.3,1.6-0.6,1.8,0.7
		c0.1,0.5,0.6,0.6,1,0.6c0.4,0,0.9-0.1,1.3,0c0.6,0,1,0.3,0.6,1c-0.1,0.2-0.3,0.4,0,0.6c0.2,0.2,0.5,0.1,0.7,0
		c0.3-0.2,0.6-0.4,0.9-0.6c0.3-0.2,0.5-0.5,0.8-0.4c0.9,0.2,1.7,0.5,2.7,0c0.5-0.2,0.7,0.5,0.8,1c0.2,0.7,0.3,1.4,1.2,1.6
		c0.5,0.1,0.5,0.6,0.3,1c-0.3,0.8-0.4,1.4,0.5,1.9c0.5,0.3,0.6,0.8,0,1.1c-0.1,0-0.2,0.1-0.2,0.1c-0.8,1.5-1.9,2.5-3.8,2.6
		c1.5,0.1,2.9,0.5,4.3-0.3c1-0.6,2.1-1,3.3-0.7c1.1,0.2,1.4,0.8,0.7,1.7c-0.6,0.8-0.3,0.9,0.4,1c0.5,0,1,0,1.5,0
		c0.6,0,1,0.3,0.8,0.9c-0.2,0.6,0.1,1,0.6,1.3c0.7,0.4,0.9,1.1,0.3,1.7c-0.7,0.8-1.7,1.1-2.7,1.5c-0.5,0.2-0.4-0.4-0.8-0.7
		c-0.1,0.6-0.5,1,0.3,1.4c1.1,0.5,1.7,1.4,1.6,2.6c-0.1,1.1-0.6,2-1.8,2.3c-1.1,0.3-2.1-0.1-3.1-1.2c-0.5,0.9-0.6,2.1-1.9,2.4
		c0,0-0.1,0-0.1,0c-1.5-0.2-2.7,0.6-3.9,1.3c-1,0.6-2.1,0.4-3.1,0.9c-0.4,0.2-0.8,0-1.1-0.3c-0.5-0.4-1-0.8-1.4-1.3
		c-0.5-0.5-0.9-0.7-1.6-0.5C88.3,49,87.8,49,87.4,49c-0.5-0.1-0.9,0-1.2,0.5c-0.5,0.7-1,1.1-1.6,0c-0.2-0.3-0.4-0.6-0.8-0.7
		c-0.2-0.1-0.5-0.1-0.7,0c-0.2,0.2-0.3,0.4-0.1,0.6c0.4,1,0.2,1.9-0.2,2.8c-0.1,0.4-0.3,0.9-0.3,1.3c0,1,0.1,1.9-1.4,1.2
		c-0.5-0.2-0.6,0.3-0.6,0.7c-0.2,1.3-0.7,2.2-2,2.8c-0.6,0.3-1,1-1.5,1.5c-1,1.1-1.7,1.1-2.7,0c-0.5-0.6-1-1.2-1.3-1.8
		c-0.5-0.8-0.8-1.5-1.9-1.4c-0.5,0-0.6-0.5-0.7-0.9c-0.1-0.5-0.2-1-0.3-1.5c-0.2-0.8-0.4-1.4-1.4-1c-0.4,0.1-0.9,0.1-1.2-0.3
		c-0.2-0.4,0-0.8,0.3-1.1c0.9-0.9,0.2-2.3,1.1-3.2c0.3-0.3-0.3-0.7-0.8-0.6c-0.6,0.1-1.1,0.4-1.6,0.8c-1,0.6-1.6,0.4-1.9-0.6
		c-0.4-1.1-1-0.8-1.5-0.3c-0.9,0.7-1.7,1.4-2.5,2.2c-0.5,0.4-1,0.7-1.6,0.2c-0.1-0.1-0.2-0.2-0.3-0.2c-1.8,0.2-3.1-0.8-4.4-1.7
		c-0.2-0.2-0.5,0-0.7,0c-1.4,0.1-2.3-0.3-2.8-1.6c-0.3-0.8-0.5-0.7-1.1-0.2c-1.1,0.9-2.8,0.7-3.6-0.2c-0.9-1.1-0.8-2.8,0.4-3.7
		c0.3-0.2,0.6-0.7,1-0.3c0.4,0.4-0.1,0.7-0.4,0.9c-0.8,0.6-0.8,1.4-0.5,2.3c0.2,0.6,0.7,0.9,1.3,0.8c0.8-0.1,1.5-0.4,1.8-1.3
		c0.1-0.4,0.2-0.6-0.3-0.9c-1.7-0.8-2.3-2.7-1.4-4.4c0.9-1.6,2.7-2.1,4.4-1.1c0.6,0.4,0.9,0.4,1.4,0C55,37.7,56.1,37.7,57.5,38.4z
		 M68.8,52c1.7-0.2,1.7-0.2,2.1,1.3c0.1,0.5,0.2,1,0.3,1.5c0.1,0.3,0.2,0.7,0.6,0.7c1.2-0.2,1.4,0.7,1.9,1.4c0.5,0.7,1,1.4,1.5,2.1
		c0.2,0.3,0.6,0.6,0.9,0.3c1-1,2-2,3.2-2.8c0.2-0.1,0.2-0.4,0.3-0.6c0.2-0.6,0.3-1.2,0.4-1.7c0.1-0.6,0.3-1.1,1.1-0.6
		c0.3,0.2,0.5,0.2,0.6-0.2c0.7-2.1,1-4.1-1.1-5.7c-0.4-0.3-0.7-0.8-1-1.2c-0.3-0.5-0.5-1-0.4-1.6c0.1-1,0.9-1.3,1.8-0.8
		c0.3,0.2,0.5,0.5,0.8,0.7c1.3,1.3,1.8,3.3,3.8,4c0.3-0.8,0.7-1.2,1.8-0.8c0.7,0.3,1.8,0.1,2.2-0.5c0.6-0.8,1.4-1.2,2.2-1.5
		c0.7-0.3,0.9-0.6,0.3-1.2c-0.4-0.4-0.6-0.8-0.1-1.3c0.7-0.7,0.4-1.1-0.2-1.8c-0.5-0.7-2.2-1.2-1.1-2.6c0.1-0.2,0-0.4-0.3-0.4
		c-1.6-0.3-3-1.3-4.8-0.9C85,38,84.4,38,83.8,37.8c-0.6-0.2-1.2-0.5-1.1-1.2c0.1-0.8,0.8-0.8,1.4-0.8c0.2,0,0.3,0,0.5,0.1
		c1.8,0.4,3.3-0.3,4.8-1.1c0.3-0.2,0.6-0.4,0.2-0.7c-0.6-0.5-0.2-0.8,0.1-1.3c0.6-0.9,1.1-1.7,0.7-3.1c-0.3-1-1.4-2.4,0.3-3.6
		c-1.1-0.1-2,0-2.1-1.1c0-0.3-0.4-0.2-0.6-0.1c-0.8,0.4-1.6,0.3-2.5,0.5c-1.3,0.2-2.5-0.3-3.8,0.3c-1.8,0.8-3.7,1.5-5,3.1
		c-0.5,0.6-0.7,0.5-1.2,0.1c-2.7-2.2-3.7-3-8-3.1c-0.2,0-0.3,0-0.5-0.1c-1.2-0.3-2.1,0-3.2,0.6c-1.5,0.8-2,1.5-2,3.2
		c0,1.1,0.2,1.6,0.9,2.2c0.7,0.5,1.1,1.1,0.5,1.9c-0.4,0.5-0.3,0.8,0.4,0.9c0.3,0.1,0.7,0.2,1,0.4c1.1,0.7,2.2,0.6,3.3,0.1
		c0.6-0.3,1.2-0.5,1.8-0.5c1.1,0,1.4,0.7,0.9,1.6c-0.4,0.7-1,1-1.7,1.2c-0.9,0.2-1.7,0.2-2.6,0.3c-3.3,0.1-5.3,2.3-6.9,4.8
		c-0.4,0.6,0.5,1.8,0.4,2.8c0,0.1,0.3,0.2,0.4,0.2c1.5,0.1,2.6,1.7,4.3,1.1c0.5-0.2,0.9,0.4,1,1c0.1,0.3,0.3,0.6,0.7,0.4
		c1.6-0.8,3.6-1.3,4.5-3.1c0.1-0.3,0.4-0.5,0.7-0.7c0.5-0.4,1.1-0.7,1.6-0.2c0.5,0.4,0.2,1,0,1.6c-0.6,1.3-1.4,2.3-2.6,3.1
		c-0.5,0.4-1.2,0.8-1.1,1.5C69.5,50.7,69.3,51.3,68.8,52z M94.9,39c1.4-0.6,2.6-0.7,3.7,0.3c0.4,0.4,0.6,0,0.9-0.1
		c1.9-1.2,3.9-0.7,4.7,1.3c0.4,1,0.8,1,1.5,0.5c0.2-0.1,0.5-0.3,0.7-0.4c0.9-0.4,1.2-0.9,0.1-1.5c-0.2-0.1-0.5-0.4-0.5-0.6
		c0.1-1-0.5-1-1.2-0.9c-0.5,0-1-0.1-1.5-0.4c-0.6-0.4-0.9-0.8-0.2-1.4c0.2-0.2,0.6-0.4,0.4-0.8c-0.2-0.3-0.6-0.2-0.9-0.2
		c-0.4,0.1-0.8,0.1-1.1,0.3c-1.6,1.2-3.5,0.8-5.3,1c-0.6,0.1-1-0.3-1.1-0.8c-0.1-0.6,0.2-1.1,0.8-1.3c0.3-0.1,0.6-0.2,0.9-0.2
		c1.5,0.2,1.7-1.2,2.4-2c0.1-0.1,0-0.3-0.1-0.4c-0.7-0.3-0.5-0.9-0.4-1.4c0.1-1.2-1-1.9-1.3-3c-0.1-0.3-0.6-0.1-0.8,0.1
		c-0.3,0.2-0.7,0.3-1,0c-0.6-0.7-1.2-0.4-1.7,0.1c-0.4,0.4-0.9,0.9-1.5,0.7c-1-0.2-1.6,0.3-1.1,1.3c0.7,1.3,0,2.3-0.5,3.3
		c-0.5,1-0.2,1.3,0.7,1.3c1.6,0.1,2.5,1,3.2,2.3C95.3,37.1,95.1,38,94.9,39z M60.3,46.5c-1.2-0.3-1.9-0.9-1.6-2.2
		c0-0.2,0.1-0.5,0-0.6c-1.3-1-0.6-1.8,0.3-2.6c0.4-0.4,0.6-0.7-0.2-1c-0.8-0.3-1.3-1-2.2-1.3c-0.9-0.3-1.6-0.4-2.3,0.2
		c-0.7,0.6-1.1,1.3-0.9,2.3c0.2,0.9,0.9,1.2,1.6,1.6c0.8,0.3,1.1,1.1,1.3,1.8c0.2,0.6-0.6,0.5-0.8,0.9c-0.6,0.7-0.6,1.5,0,2.2
		c0.6,0.7,1.4,0.6,2.2,0.1c0.3-0.2,0.5-0.9,1-0.5c0.4,0.4-0.1,0.8-0.4,1.2c-0.1,0.1-0.3,0.2-0.2,0.3c1.7,0.3,3.2,0,4-1.7
		c-0.4-0.3-0.7,0-1,0.1c-1.3,0.3-3.3-0.4-3.8-1.3c-1-2-0.8-4,0.6-5.2c0.3-0.2,0.6-0.4,0.8-0.1c0.3,0.3-0.1,0.4-0.3,0.6
		c-1.2,1.2-1.4,3-0.3,4.3C58.4,46.4,59.3,46.8,60.3,46.5z M92.5,41.2c0.5,0.7,1.3,1.1,0.7,1.9c-0.5,0.7-0.4,1.3,0.1,1.9
		c0.6,0.7,0.3,1.2-0.5,1.5c-0.4,0.2-0.9,0.1-1.1,0.8c1.1,0,2.1-0.2,2.7-1.1c1-1.5,0.8-2.8-0.3-4.1c-0.2-0.2-0.8-0.4-0.4-0.8
		c0.4-0.4,0.7,0,1,0.3c1.5,1.6,1.4,4.3-0.3,5.7c-0.2,0.2-0.6,0.2-0.3,0.7c0.4,0.6,1,1,1.7,0.9c0.7,0,1.1-0.4,1.3-1.1
		c0.2-0.7,0.1-1.4-0.5-1.7c-1.1-0.6-0.5-1.2-0.2-1.8c0.3-0.5,0.8-0.8,1.3-1c1-0.5,1.4-1.5,1.1-2.4c-0.4-1.2-1.5-1.9-2.6-1.6
		c-0.3,0.1-0.6,0.3-1,0.4c-0.6,0.3-0.5-0.2-0.5-0.5c-0.1,0.1-0.2,0.1-0.2,0.2C94.4,40.6,93.6,40.9,92.5,41.2z M61.1,34
		c-1.3,0-2.2,0.6-2.9,1.8c-0.7,1.3-0.2,2.4,0.5,3.4c0.3,0.5,1.3,1.1,1.7,0.4c0.7-1.2,1.8-1.5,2.9-2c0.8-0.4,1-0.9,0.5-1.6
		c-0.6-0.8-2-0.8-2.3-2C61.4,33.9,61.2,34,61.1,34z M91.3,34.6c-0.7,0.5-1.9,0.8-2.6,1.6c-0.5,0.5-0.5,1.1,0.4,1.2
		c0.4,0.1,0.8,0.3,1.3,0.3c1.4,0.3,1.5,0.4,1.1,1.7c-0.1,0.3-0.2,0.6,0.1,0.8c0.3,0.3,0.5,0.1,0.9,0.1c1.5-0.2,1.7-1.5,1.9-2.5
		C94.7,36.5,93,34.6,91.3,34.6z M51.3,43.5c0.5,0,0.9-0.5,1.4-0.9c0.4-0.3-0.1-0.7-0.1-1.1c-0.1-0.5-0.1-0.9,0.1-1.4
		c0.1-0.2,0.2-0.4,0-0.7c-0.7-0.9-2.3-1.1-3.2-0.4c-0.9,0.7-1.2,1.9-0.8,3C49.1,43.2,50.1,43.3,51.3,43.5z M99.9,41.3
		c-0.2,0.7-0.3,1.1-0.4,1.5c-0.1,0.2-0.2,0.5,0.1,0.6c0.8,0.3,1.3,1,2.4,0.7c1.3-0.4,2-1.3,1.9-2.6c-0.2-1.1-1.3-2.2-2.4-2.1
		c-0.7,0.1-1.2,0.5-1.7,0.8C99.2,40.6,100,41.1,99.9,41.3z M99,48.1c1-0.1,1.6-0.7,1.7-1.7c0.2-1-0.3-1.8-1.2-2.2
		c-0.9-0.4-1.7,0.1-2.3,0.7c-0.3,0.3-0.1,0.6,0.1,0.8c0.4,0.4,0.7,1,0.7,1.6C98.1,48,98.5,48,99,48.1z M53.3,47.4
		c0.4-0.1,0.9,0,0.9-0.7c0-0.7,0.3-1.3,0.8-1.8c0.2-0.2,0.3-0.4,0.1-0.6c-0.6-0.7-1.4-1.1-2.3-0.8c-0.8,0.2-1.5,1.4-1.3,2.2
		C51.8,46.6,52.2,47.3,53.3,47.4z M105.7,45c0-0.7-0.3-1.3-1-1.5c-1.1-0.3-1.2,1.3-2.3,1.2c-0.1,0-0.2,0.1-0.2,0.4
		c0.2,0.9,1.1,1.7,2,1.6C105.4,46.7,105.6,45.9,105.7,45z M94.6,49.9c-0.6-0.6-1-0.9-1-1.5C93.5,48,93.3,47.9,93,48
		c-0.5,0.2-1.1,0.1-1.6,0c-0.3-0.1-0.7-0.1-0.6,0.4c0,0.4,1.4,1.6,1.7,1.4C93.1,49.4,93.7,49.7,94.6,49.9z M69.7,35.6
		c-0.3-0.3-0.5-0.2-0.8-0.1c-1.3,0.3-2.5,1.2-3.9,0.6c-0.2-0.1-0.3,0.1-0.3,0.4c0,0.3,0.2,0.4,0.5,0.4c0.8-0.1,1.5-0.1,2.3-0.2
		C68.3,36.5,69.2,36.4,69.7,35.6z M82.7,48.3c-0.4-1.4-0.9-2.3-1.8-3.1c-0.2-0.2-0.5-0.3-0.7-0.1c-0.2,0.2-0.1,0.4,0,0.6
		C80.8,46.6,81.5,47.5,82.7,48.3z M72.1,44.5c-1.1,0.7-1.3,1.9-2.5,2.4C71.2,47,71.8,46.4,72.1,44.5z M87.6,36.7
		c-1.2,0.3-2.5,0.1-3.7,0.1C85.2,37.2,86.4,36.9,87.6,36.7z"/>
	<path class="st0" d="M10.6,18.4c0.8-0.6,1.2-1.5,1.6-2.3c1.5-3.2,3-6.5,4.6-9.7c0.1-0.2,0.2-0.4,0.3-0.6c0.2-0.3,0.4-0.8,0.8-0.7
		c0.4,0.1,0.3,0.6,0.3,0.9c0.4,3.8,0.8,7.6,1.2,11.4c0.1,0.8,0.2,1.5,0.3,2.2c0.2,1.2,0.6,2,1.9,2.3c0.3,0,0.6,0.1,0.6,0.5
		c0,0.4-0.4,0.3-0.7,0.3c-1.2,0-2.3,0-3.5,0c-0.6,0-0.8-0.2-0.8-0.9c0.2-3.5-0.4-6.9-1.1-10.5c-0.4,0.9-0.9,1.7-1.3,2.6
		c-1.2,2.5-2.4,5.1-3.6,7.7c-0.7,1.4-0.7,1.4-1.6,0.1c-1.9-2.8-3.2-6-4.6-9c-0.2-0.4-0.2-0.8-0.7-1.1C4,12.7,4,14,3.8,15.3
		c-0.2,1.3-0.3,2.6-0.4,3.9c-0.1,1.3-0.2,2.6,1.7,3c-0.1,0.1-0.2,0.2-0.2,0.3c-1.6,0-3.3,0-4.9,0c2.6-1.9,1.7-4.8,2.1-7.3
		c0.6-3,0.7-6.2,1-9.2C3.2,5.6,3,5.1,3.5,5c0.4-0.1,0.6,0.3,0.8,0.6c1.7,2.8,3.1,5.9,4.5,8.8C9.4,15.7,10,17,10.6,18.4z"/>
	<path class="st0" d="M127.2,5.5c-1.8,0.4-1.5,1.6-1.5,2.8c0,2.9,0,5.8,0,8.7c0,2,1.1,3.3,2.8,4.1c1.6,0.8,3.3,0.5,4.8-0.5
		c1.3-0.9,1.8-2.2,1.8-3.7c0-3.1,0.1-6.2-0.1-9.3c0-0.8-0.1-1.5-1.2-1.6c-0.2,0-0.5-0.2-0.5-0.4c0-0.4,0.4-0.3,0.7-0.3
		c1.5,0,3,0,4.6,0.2c-1.8,0.7-1.4,2.1-1.4,3.3c0,2.4,0,4.8,0,7.2c-0.1,3.5-2,6.1-4.9,6.8c-5.2,1.3-9.1-3.1-8.9-6.8
		c0.2-2.6,0-5.3,0-7.9c0-1,0-2-1.3-2.1c-0.2,0-0.4-0.1-0.4-0.4c0-0.2,0.1-0.3,0.3-0.3C123.5,5.4,125.2,5.1,127.2,5.5z"/>
	<path class="st0" d="M80.2,21.1c1.4-0.7,1.1-1.9,1.1-3c0-2.3,0-4.5,0-6.8c0-1.8,0-1.8-1.4-2.6c0.2-0.4,0.6-0.3,0.9-0.3
		c2,0.2,4.1,0,6.1,0c1.5,0,2.8,0.4,4.1,1.1c2.9,1.6,3.8,3.4,3.3,6.6c-0.4,2.7-2.4,4.6-5.3,5.1c-2.1,0.4-4.2,0.3-6.3,0.1
		C81.9,21.2,81.1,21.2,80.2,21.1z M83.5,14.6C83.5,14.6,83.6,14.6,83.5,14.6c0.1,1.3,0.1,2.7,0.1,4c0,1.2,0.6,1.7,1.7,1.7
		c1.1,0.1,2.2,0,3.2-0.3c3.5-1,4.9-4.5,3-7.7c-1.6-2.7-5-3.3-7.5-2.9c-0.5,0.1-0.5,0.5-0.5,0.9C83.5,11.8,83.5,13.2,83.5,14.6z"/>
	<path class="st0" d="M45.9,14.7c1.4,0,2.8,0,4.3,0c0.1,0,0.3,0.1,0.4,0.2c0.1,0.2-0.1,0.4-0.3,0.5c-0.7,0.2-0.7,0.8-0.7,1.3
		c0,1,0,2,0,3c0,0.5-0.2,0.9-0.6,1.2c-2.8,1.5-8.8,0.5-10.9-1.8c-3.1-3.6-2-8.5,2.4-10.3c2.8-1.1,5.7-0.6,8.6-0.2
		c0.4,0.1,0.5,0.3,0.5,0.7c0,0.4,0,0.9-0.1,1.3c-0.1,0.4,0,1.1-0.5,1.2c-0.6,0.1-0.5-0.6-0.7-0.9c-0.3-0.4-0.7-0.9-1.2-1.1
		C45,8.5,41,9.2,39.6,11.2c-1.8,2.3-1.2,5.8,1.3,7.6c1.6,1.1,3.3,1.6,5.3,1.3c0.8-0.1,1.2-0.5,1.2-1.3c0-0.3,0-0.6,0-0.8
		c0-1.2,0.3-2.6-1.8-2.8C45.7,15,45.8,14.8,45.9,14.7z"/>
	<path class="st0" d="M169,15.2c0,2.4-1.1,4.1-3.2,5.2c-3.1,1.6-6.3,1.7-9.2-0.4c-4-2.9-3.6-8.7,0.8-10.9c4.8-2.5,10.2-0.3,11.5,4.6
		C169,14.2,169,14.7,169,15.2z M156,14.3c0,3.5,2.5,6.2,5.8,6.2c2.9,0,5-2.2,5.1-5.2c0-3.4-2.4-6.1-5.5-6.1
		C158.1,9.2,156,11.2,156,14.3z"/>
	<path class="st0" d="M117,27c-1.1-1.1-3-1.1-4.2-0.1c-0.6,0.6-1.1,1.3-1.4,2c-0.3,0.5-0.5,1.1-0.8,1.6c-1.2,2.3-2.8,3.2-5.1,2.9
		c-2.3-0.3-3.7-1.7-4.2-4.1c-0.1-0.5-0.1-1-0.2-1.5c-0.1-0.6,0.2-0.9,0.8-0.9c0.4,0,0.8,0.1,1.1-0.4c1.7-2.9,5.7-3,7.6-0.2
		c0.6,0.9,0.9,1,1.7,0.2c0.9-1.1,2.1-1.7,3.6-1.5c0.9,0.1,1.6,0.4,2,1.2c0.4,0.8,1,0.9,1.7,0.9c4.5,0,9,0,13.5,0c0.2,0,0.3,0,0.5,0
		c0.3,0,0.9-0.1,0.9,0.3c0,0.6-0.6,0.3-1,0.3c-1.2,0-2.4,0-3.6,0c-3.5,0-6.9,0-10.4,0c-0.7,0-1.3,0.1-1.8,0.6
		c-0.9,0.8-2.5,0.7-3.2-0.2c-0.2-0.2-0.5-0.5-0.3-0.8c0.1-0.3,0.5-0.2,0.8-0.2C115.4,27,116.1,27,117,27z M105.6,27
		C105.6,27,105.6,27,105.6,27c0.2,0,0.3,0,0.5,0c0.5,0.1,1.3-0.3,1.5,0.3c0.2,0.6-0.2,1.2-0.7,1.7c-0.2,0.2-0.3,0.3-0.5,0.5
		c-0.7,0.4-1.2,1.8-0.8,2.6c0.1,0.3,0.4,0.3,0.6,0.3c1.6,0.2,3.4-0.9,4.1-2.4c0.6-1.3,0.3-3-0.8-3.9c-1.2-1-3.5-1.3-4.8-0.5
		c-0.5,0.3-1.1,0.7-0.9,1.3c0.2,0.5,0.8,0.2,1.3,0.2C105.2,27,105.4,27,105.6,27z M104.6,30.8c0-0.4,0.2-0.9-0.1-1
		c-0.8-0.4-1.4-1-1.7-1.9c-0.1-0.4-0.5-0.3-0.8-0.2c-0.3,0.1-0.2,0.4-0.2,0.6c0.2,1.2,0.5,2.2,1.5,3c0.4,0.3,0.8,0.8,1.2,0.6
		C104.8,31.7,104.5,31.2,104.6,30.8z M104.8,27.6c-0.4,0.3-1.2-0.4-1.2,0.5c0,0.5,0.5,0.9,1.1,0.9c0.7,0,1.3-0.3,1.3-1
		C106,27.2,105.2,27.9,104.8,27.6z"/>
	<path class="st0" d="M35.5,26.3c0.7,0,1.5,0,2.2,0c0.8,0,0.8,0.4,0.4,0.9c-0.7,1-2.4,1.3-3.4,0.4c-0.6-0.6-1.2-0.7-1.9-0.7
		c-4.6,0-9.2,0-13.8,0c-0.3,0-0.6,0-0.8,0c-0.1,0-0.3-0.2-0.3-0.3c0-0.1,0.1-0.3,0.3-0.3c0.3,0,0.6,0,1,0c4.6,0,9.2,0,13.8,0
		c0.7,0,1.1,0,1.5-0.8c0.9-1.5,2.9-1.7,4.6-0.6c0.3,0.2,0.6,0.4,0.8,0.7c0.7,0.8,1.3,1.5,1.9,0c0.1-0.2,0.3-0.4,0.6-0.2
		c0.3,0.2,0,0.4-0.1,0.6c-1.5,2.8,0.5,5.7,3.8,5.8c0.3,0,0.7-0.1,0.7-0.5c0-0.9,0.6-2.1-0.9-2.5c-0.3-0.1-0.6-0.4-0.7-0.7
		c-0.3-0.4-0.6-1-0.4-1.4c0.2-0.4,0.8-0.2,1.2-0.2c0.6,0,1.3,0,1.9,0c0.3,0,0.6,0.2,0.7-0.2c0.1-0.3-0.2-0.5-0.3-0.7
		c-0.9-1.1-3-1.3-4.7-0.6c-0.4,0.2-0.7,0.5-1.2,0.3c1.5-1.9,5.4-1.7,6.6,0.3c0.4,0.6,0.7,1.1,1.5,0.9c0.3-0.1,0.6,0,0.6,0.5
		c0,3.6-1.8,6.6-6.2,5.9c-1.5-0.2-2.5-1.2-3.2-2.6c-0.5-1-0.9-2-1.5-3c-1-1.6-2.9-2.2-4.4-1.5C35.7,25.8,35.5,25.9,35.5,26.3z
		 M47.7,30.3c0.1,0.2-0.2,0.7,0.2,0.9c0.4,0.2,0.7-0.2,1-0.5c1-0.8,1.4-1.9,1.6-3.1c0.1-0.3,0.2-0.7-0.3-0.8c-0.4-0.1-0.7,0-0.8,0.4
		c-0.2,0.6-0.5,1.2-1,1.4C47.7,29,47.6,29.5,47.7,30.3z M47.3,26.8c-0.3,0.5-1.1-0.4-1.1,0.5c0,0.6,0.6,1,1.3,1c0.7,0,1.3-0.4,1.2-1
		C48.6,26.5,47.8,27.1,47.3,26.8z"/>
	<path class="st0" d="M147.3,8.2c1.7,0,3.1,0.2,4.5,0.4c0.7,0.1,0.9,0.4,0.8,1c-0.1,0.7-0.2,1.4-0.3,2.1c0,0.2-0.1,0.4-0.3,0.5
		c-0.3,0.1-0.4-0.2-0.5-0.4c-0.8-2.1-2.5-2.7-4.6-2.6c-2.1,0.1-3.9,0.9-4.8,3c-0.9,2-0.5,3.9,0.8,5.6c1,1.3,2.2,2.1,3.9,2.4
		c2,0.4,3.6-0.1,4.9-1.7c0.2-0.2,0.3-0.6,0.7-0.4c0.3,0.2,0.2,0.6,0.2,0.9c-0.2,1-0.5,1.6-1.6,1.9c-2.2,0.5-4.4,0.9-6.6,0.4
		c-2.9-0.7-4.9-3.3-4.9-6.2c0-3.1,2.2-5.9,5.1-6.5C145.6,8.3,146.6,8.1,147.3,8.2z"/>
	<path class="st0" d="M95.9,20.9c1.1-0.4,1.1-1.2,1.1-2.2c0-2.5,0-4.9,0-7.4c0-1.1,0.4-2.4-1.5-2.5c0.5-0.6,1-0.5,1.4-0.5
		c2.1,0,4.2,0.1,6.3-0.1c0.7-0.1,0.9,0.2,0.7,0.8c-0.1,0.4-0.2,0.8-0.3,1.2c-0.2,0.4-0.4,0.6-0.7,0.1c-0.8-1.3-2-0.9-3.1-0.9
		c-0.4,0-0.4,0.3-0.4,0.6c0,0.5,0,1,0,1.6c0.1,0.7-0.4,1.7,0.3,2c0.9,0.4,2.1,0.4,3-0.1c1.2-0.7,1.1,0,1,0.7c0,0.2,0,0.4-0.1,0.6
		c-0.2,0.4,0.1,1.1-0.5,1.2c-0.5,0.2-0.5-0.5-0.8-0.8c-0.8-0.6-1.8-0.5-2.6-0.3c-0.6,0.1-0.3,0.9-0.3,1.4c0,0.6,0,1.1,0,1.7
		c0,0.9-0.1,1.7,1,2c1.2,0.4,2.4,0.1,3.1-0.7c0.2-0.2,0.2-0.8,0.7-0.6c0.3,0.2,0,0.6,0,0.9c-0.1,1.2-0.6,1.6-1.9,1.5
		c-2.1-0.1-4.2,0-6.3,0C96,21.1,95.9,21,95.9,20.9z"/>
	<path class="st0" d="M72.7,20.9c-1.2,0.4-2.3,0.3-3.5,0.3c-0.3,0-0.5-0.1-0.5-0.5c-0.2-1.4-1-2.5-1.4-3.8c-0.2-0.5-0.5-0.5-0.9-0.5
		c-2.9-0.2-2.9-0.2-4,2.6c-0.4,1.2-0.4,1.2,0.7,2.1c-1.6,0-3,0-4.5,0c3-2.2,3.2-5.8,4.7-8.6c0.6-1.1,1-2.4,1.5-3.6
		C65.1,8,65.6,8,65.9,8.7c0.6,1,1.1,2.1,1.5,3.2c0.9,2,1.8,4.1,2.7,6.1C70.7,19.2,71.1,20.5,72.7,20.9z M65.1,11.7
		c-0.3,0.9-0.5,1.7-0.9,2.4C63.7,15,64,15.4,65,15.3c0.3,0,0.6,0,0.8,0c0.5,0,0.7-0.2,0.5-0.7C65.9,13.7,65.7,12.7,65.1,11.7z"/>
	<path class="st0" d="M37.2,20.9c-1.3,0.4-2.5,0.3-3.7,0.3c-0.3,0-0.4-0.2-0.4-0.5c-0.1-1.4-1-2.6-1.5-3.9c-0.1-0.3-0.3-0.4-0.6-0.4
		c-0.1,0-0.2,0-0.4,0c-3-0.1-3.4,0.2-4.2,3.2c-0.2,0.8,0.5,0.9,0.9,1.5c-1.5,0-2.9,0-4.3,0c2.4-1.4,2.5-4,3.5-6.1
		c0.9-1.8,1.5-3.7,2.3-5.5c0.2-0.5,0.3-1.2,0.9-1.1c0.5,0,0.8,0.7,1,1.1c1,2.3,2,4.6,3,6.9c0.3,0.8,0.7,1.5,1.1,2.3
		C35.3,19.7,36.1,20.5,37.2,20.9z M29.5,11.8c-0.3,0.7-0.5,1.2-0.6,1.7c-0.7,1.9-0.7,1.9,1.3,1.8c0,0,0.1,0,0.1,0
		c0.4,0,0.6-0.2,0.5-0.6C30.4,13.8,30.2,12.8,29.5,11.8z"/>
	<path class="st0" d="M105.8,21c1.1-0.6,1.1-1.5,1.1-2.5c0-2.4,0-4.9,0-7.3c0-1.7,0-1.7-1.6-2.6c1.9-0.3,3.5-0.3,5.2,0.2
		c-1.5,0.3-1.4,1.3-1.4,2.3c0,2.2,0.2,4.5,0,6.7c-0.2,2.2,1.8,3.1,3.6,2.3c0.4-0.2,0.8-0.5,1.2-0.8c0.2-0.2,0.4-0.7,0.8-0.5
		c0.3,0.2,0.1,0.6,0.1,0.9c-0.1,1.1-0.5,1.7-1.7,1.6C110.6,21.1,108.2,21.4,105.8,21z"/>
	<path class="st0" d="M56.7,8.7c-1.4,0.4-1.3,1.4-1.3,2.4c0,2.5,0,5,0,7.5c0,0.9-0.1,1.9,1.2,2c0.1,0,0.3,0.2,0.3,0.3
		c0,0.2-0.2,0.3-0.4,0.4c-1.3,0-2.6,0-3.9,0c-0.1,0-0.3-0.1-0.4-0.2c-0.1-0.2,0.1-0.3,0.3-0.4c0.7-0.3,0.8-1,0.8-1.6
		c0-2.9,0-5.9,0-8.8c0-1-0.7-1.1-1.3-1.5C53.6,8.4,55.1,8.5,56.7,8.7z"/>
	<path class="st0" d="M82.4,41.2c-2.1-1.7-3.6-3.8-5.1-6c-0.2,4.6,0.2,9.2-0.7,13.8c0.1-4.4-0.3-8.8-0.4-13.3
		c-1.7,2.6-3.8,4.7-7,5.9c0.4-0.9,1.2-1.2,1.7-1.6c2.2-1.5,3.9-3.4,4.8-6c0.4-1.2,0.2-1.4-1-1.1C73.8,33.1,72.9,33,72,33
		c-0.2,0-0.4-0.1-0.3-0.2c0-0.1,0.2-0.3,0.3-0.3c1.3,0,2.6-0.4,3.8-0.9c0.3-0.1,0.5-0.1,0.8,0c2,1,3.9,0.7,5.9-0.2
		c0.2-0.1,0.4-0.2,0.8,0c-0.6,0.7-1.4,1.1-2.3,1.3c-0.6,0.2-1.2,0.2-1.8,0.2C77,33,77,33,78.1,35c1.3,2.1,3,3.9,4.6,5.8
		C82.7,40.9,82.5,41,82.4,41.2z"/>
	<path class="st0" d="M67.2,30.6c0.6-0.2,0.9,0.2,1.3,0.4c0.4,0.2,0.8,0.4,1.1,0.6c0.4,0.3,1.2,0.1,1.2,0.9c-0.5-0.2-1.1,0-1.6-0.3
		C68.6,31.8,67.7,31.5,67.2,30.6z"/>
	<path class="st0" d="M82.4,41.2c0.1-0.1,0.2-0.2,0.4-0.4c0.6,0.5,1.3,0.9,1.9,1.4c0.2,0.1,0.3,0.3,0.2,0.5c-0.1,0.2-0.4,0.2-0.5,0
		C83.7,42.2,82.9,41.8,82.4,41.2z"/>
	<path class="st0" d="M54.5,0c0.3,1.3,0.3,2.6,2,2.9c-1.9,0.3-1.6,1.8-2.1,3.3c-0.3-1.5-0.2-2.9-2-3.1C54,2.6,54.1,1.3,54.5,0z"/>
</g>
</svg>
