<?xml version="1.0" encoding="utf-8"?>
<!-- Generator: Adobe Illustrator 25.0.0, SVG Export Plug-In . SVG Version: 6.00 Build 0)  -->
<svg version="1.1" id="Layer_1" xmlns="http://www.w3.org/2000/svg" xmlns:xlink="http://www.w3.org/1999/xlink" x="0px" y="0px"
	 viewBox="0 0 60 60" style="enable-background:new 0 0 60 60;" xml:space="preserve">
<style type="text/css">
	.st0{fill:#363126;}
</style>
<g>
	<g id="Grupo_240" transform="translate(0 0)">
		<path id="Trazado_14595" class="st0" d="M56.3,15.9c-0.1-2.2-1.9-3.9-4.1-4H41.5v-0.4C41.5,5.1,36.4,0,30,0S18.5,5.1,18.5,11.5V12
			H7.8c-2.2,0-4,1.8-4.1,4L1.4,55.8c-0.1,1.1,0.3,2.1,1.1,2.9c0.8,0.8,1.9,1.3,3,1.3h49.1c1.1,0,2.2-0.5,3-1.3
			c0.7-0.8,1.1-1.8,1.1-2.9L56.3,15.9z M22,11.5c0-4.4,3.6-8,8-8s8,3.6,8,8V12H22V11.5z M55,56.3c-0.1,0.1-0.3,0.2-0.5,0.2H5.5
			c-0.2,0-0.4-0.1-0.5-0.2c-0.1-0.1-0.1-0.2-0.1-0.3l2.3-39.9c0-0.3,0.2-0.7,0.6-0.7h10.7v3.6c-1.4,0.8-1.8,2.6-1,3.9
			c0.8,1.4,2.6,1.8,3.9,1c1.4-0.8,1.8-2.6,1-3.9c-0.1-0.2-0.3-0.4-0.5-0.6v-4.1h16.1v4.1c-1.1,1.1-1.1,2.9,0,4.1
			c1.1,1.1,2.9,1.1,4.1,0c1.1-1.1,1.1-2.9,0-4.1c-0.2-0.2-0.4-0.3-0.6-0.5v-3.6h10.7c0.3,0,0.6,0.3,0.6,0.7L55.1,56
			C55.1,56.1,55.1,56.2,55,56.3"/>
	</g>
</g>
</svg>
