<?xml version="1.0" encoding="utf-8"?>
<!-- Generator: Adobe Illustrator 25.0.0, SVG Export Plug-In . SVG Version: 6.00 Build 0)  -->
<svg version="1.1" id="Layer_1" xmlns="http://www.w3.org/2000/svg" xmlns:xlink="http://www.w3.org/1999/xlink" x="0px" y="0px"
	 viewBox="0 0 60 60" style="enable-background:new 0 0 60 60;" xml:space="preserve">
<style type="text/css">
	.st0{fill:#363126;}
</style>
<g id="noun-user-5274446">
	<path class="st0" d="M50.6,60H9.5c-2.7,0-4.9-2.2-4.9-4.9v-5.9c0.1-11.3,7.7-20.9,18-24.1c-3.7-2.4-6.2-6.7-6.2-11.5
		C16.3,6.1,22.4,0,30,0c7.6,0,13.7,6.1,13.7,13.7c0,4.8-2.5,9-6.2,11.5c10.3,3.2,17.9,12.8,18,24v5.9C55.4,57.8,53.3,60,50.6,60z
		 M8.5,49.3v5.9c0,0.5,0.4,1,1,1h41.1c0.5,0,1-0.4,1-1v-5.9C51.4,37.6,41.9,28.1,30.2,28c-0.1,0-0.2,0-0.2,0
		C18.2,28,8.6,37.5,8.5,49.3z M30,3.9c-5.4,0-9.8,4.4-9.8,9.8s4.4,9.8,9.8,9.8c5.4,0,9.8-4.4,9.8-9.8S35.4,3.9,30,3.9z"/>
</g>
</svg>
